<?xml version="1.0" encoding="UTF-8"?>
<!-- Generated by Pixelmator Pro 3.5.7 -->
<svg width="533" height="564" viewBox="0 0 533 564" xmlns="http://www.w3.org/2000/svg">
    <path id="path3053" fill="#ffffff" stroke="none" d="M 275.440002 470.998047 C 275.495026 420.138855 275.622467 377.691589 275.723206 376.670715 C 275.823883 375.649902 276.083649 372.786285 276.300385 370.307129 C 277.322876 358.609863 279.420593 346.47644 282.420105 334.909546 C 283.955048 328.990448 284.8508 326.200684 286.521545 322.136108 C 293.921661 304.132874 306.888489 290.123505 324.341309 281.275757 C 329.656342 278.581299 333.245148 277.195007 340.888306 274.88382 C 357.021759 270.005249 371.645111 267.333466 389.900604 265.928925 C 395.302338 265.513275 412.430542 265.511902 418.13913 265.923584 C 437.868439 267.356873 457.386261 271.278687 474.483643 277.245148 C 482.291229 279.969788 490.823608 284.728821 497.816833 290.259521 C 500.665955 292.512787 507.488739 299.33606 509.849365 302.292999 C 514.126831 307.651001 518.385803 314.774078 521.10553 321.118652 C 524.420837 328.8526 527.931274 342.648315 530.016418 356.136902 L 530.695496 360.530273 C 533.610107 379.441956 533.392334 397.3815 530.690186 418.561462 L 529.8927 423.599365 C 527.820313 436.691315 524.519348 449.776367 521.395874 457.281464 C 515.654663 471.076141 506.177673 483.01828 494.20401 491.546112 C 485.162994 497.985291 476.706207 501.665253 461.22348 505.897247 C 444.440094 510.484863 428.234924 512.86969 409.512085 513.507446 L 404.334686 513.683899 L 391.181732 477.52417 C 383.947571 457.636292 378.046997 441.342072 378.069305 441.314697 C 378.091705 441.287476 379.121613 441.624359 380.358124 442.063599 C 390.139313 445.538452 407.933258 446.196686 421.848572 443.598419 C 428.629242 442.332397 434.784607 439.379578 439.617554 435.074432 C 446.736511 428.732971 450.183197 422.094421 452.721283 409.835724 C 454.408051 401.689087 454.845917 396.898987 454.723236 387.936584 C 454.603333 379.182953 453.984222 374.148315 452.059082 366.272949 C 449.654785 356.4375 446.569092 350.641388 440.828857 345.178864 C 435.457184 340.067047 429.485229 337.039825 421.854279 335.560547 C 415.537842 334.336151 411.709869 334.000153 404.083496 334.001038 C 396.339447 334.001038 391.958862 334.383789 386.026337 335.575073 C 374.397766 337.910156 365.099182 344.741882 360.004486 354.693298 C 356.414612 361.705566 353.8349 373.289215 353.191833 385.285156 C 353.125397 386.524689 353.064514 427.122559 353.056488 475.502563 L 353.044769 563.466614 L 314.192474 563.466614 L 275.340088 563.466614 L 275.440155 470.995392 Z M 121.03801 513.444763 C 99.927589 512.538635 80.455635 509.072083 61.511688 502.847626 C 55.881702 500.997772 53.442974 499.999664 48.917057 497.69278 C 29.82925 487.963989 15.714276 471.293518 9.196063 450.780273 C 8.007014 447.03833 5.604781 437.252197 4.542273 431.822052 C 2.710775 422.461548 1.195441 410.757263 0.732971 402.399719 C 0.468915 397.626831 0.466464 381.465698 0.727643 376.774719 C 1.829898 357.08783 6.635535 333.279968 12.041531 320.723999 C 19.870007 302.541595 34.252075 287.924622 52.362564 279.744293 C 56.305546 277.963287 59.627605 276.764069 65.885223 274.862885 C 108.750801 261.839233 154.536102 262.42923 197.394348 276.557404 C 210.419846 280.851288 222.668747 288.736511 231.491745 298.507599 C 238.499756 306.268707 244.174225 315.657166 247.644073 325.231567 C 251.45578 335.749237 255.766876 357.349487 256.667053 370.439697 C 256.762299 371.825134 256.887817 373.256897 256.946014 373.621521 C 257.407318 376.511932 257.59314 392.153442 257.256256 399.738831 C 256.367493 419.750854 251.697983 444.344116 246.331573 457.27652 C 243.682022 463.66156 238.946625 471.642761 234.61113 477.030182 C 227.489502 485.879944 217.445801 493.760254 206.945297 498.737091 C 195.875702 503.983551 175.031845 509.424286 157.097015 511.748535 C 145.551147 513.244873 131.631226 513.899597 121.036522 513.444763 Z M 138.077255 444.821533 C 151.304047 443.538361 158.631378 440.695435 165.586533 434.148163 C 171.197433 428.866272 174.459991 422.872314 176.817566 413.514343 C 180.761047 397.861877 180.7686 381.323669 176.839447 365.690155 C 174.541367 356.546204 171.627808 350.981262 166.402924 345.756409 C 157.941681 337.295197 147.244675 333.973846 128.594666 334.017212 C 113.67778 334.05188 104.761909 336.076324 97.120026 341.163757 C 92.527618 344.221008 88.101433 348.918945 85.601273 353.389648 C 82.506187 358.924194 80.149567 367.264313 78.72316 377.731384 C 78.113098 382.207794 77.987358 394.035828 78.497681 398.943359 C 79.518311 408.759277 81.891396 418.379883 84.64463 423.863525 C 88.299744 431.143616 93.794823 436.627289 101.099609 440.284607 C 106.359726 442.918213 111.177299 444.009094 122.098457 445.039703 C 124.756912 445.290588 134.632187 445.155762 138.077179 444.821533 Z M 120.772827 248.211029 C 118.074944 248.096741 114.853333 247.924347 113.613762 247.827942 C 110.781723 247.607697 106.003845 247.153076 105.128937 247.02066 C 104.764389 246.965515 103.75016 246.845001 102.875198 246.753021 C 102.000183 246.66098 100.986 246.543396 100.621399 246.491516 C 100.256805 246.439789 99.380997 246.317932 98.675087 246.220886 C 97.969177 246.12381 97.193634 246.007843 96.951584 245.963165 C 96.709587 245.918335 95.25872 245.680511 93.727509 245.434357 C 81.316429 243.439301 63.819881 238.844147 55.148094 235.302155 C 48.354046 232.527191 40.842854 228.112823 35.129219 223.537109 C 31.474802 220.610474 25.46962 214.559601 22.757458 211.071045 C 16.03401 202.423096 11.534093 193.661804 8.625594 183.556427 C 4.460915 169.086975 1.583958 152.194733 0.737233 137.239868 C 0.471686 132.549408 0.463641 116.33905 0.724446 111.785431 C 1.440528 99.291473 3.493458 85.516602 6.493917 73.073456 C 8.851608 63.295593 10.486343 58.564667 13.924764 51.567932 C 23.17741 32.740356 39.373283 18.562866 59.522911 11.652283 C 75.66481 6.11615 93.830177 2.412964 112.685577 0.814392 C 118.263237 0.341553 133.755081 0.181396 140.128693 0.530701 C 159.309464 1.581909 178.177216 5.079041 196.340561 10.94928 C 206.009003 14.074097 215.027222 18.857544 222.555099 24.853943 C 225.708145 27.365479 232.485077 34.116577 234.893875 37.145569 C 240.567551 44.28009 245.45961 53.277588 248.324097 61.846497 C 250.731873 69.049164 253.714539 82.473755 255.177872 92.69458 C 256.497131 101.908691 257.141235 109.413391 257.470612 119.408478 L 257.616974 123.849762 L 218.787827 123.849762 L 179.958755 123.849762 L 179.814255 123.253174 C 179.734787 122.925018 179.664215 121.592377 179.657379 120.291656 C 179.615265 112.260773 177.341034 100.203033 174.442459 92.642822 C 172.118378 86.580963 167.361084 80.544342 161.738449 76.522461 C 156.189713 72.553436 150.834335 70.675995 141.18927 69.318573 C 136.959717 68.723297 122.183632 68.636597 117.856026 69.181641 C 113.503952 69.729736 108.379814 70.732483 106.056808 71.490479 C 95.962761 74.784424 87.71199 82.382294 83.636131 92.137054 C 81.730042 96.698761 79.831619 104.516113 78.841949 111.878235 C 78.10556 117.356415 77.934746 128.380737 78.502502 133.792908 C 79.514015 143.436432 81.943855 153.350525 84.577583 158.580383 C 89.665932 168.684509 99.401825 176.039307 110.532166 178.187225 C 122.223061 180.443329 136.214798 180.438538 147.417755 178.174438 C 154.713699 176.700012 161.041275 173.363464 166.215546 168.262299 C 172.315948 162.248108 175.420837 155.718323 177.814163 143.869629 C 178.25592 141.6828 178.637726 139.877136 178.66272 139.857056 C 178.755417 139.782593 251.341507 173.706604 251.562668 173.927765 C 251.846954 174.212067 249.985001 181.607971 248.449722 186.29248 C 242.489578 204.479126 230.128098 219.972717 213.707901 229.837128 C 208.588287 232.912689 203.541351 235.208588 197.503998 237.208344 C 185.512634 241.180206 171.623901 244.460449 159.48465 246.187683 C 156.965027 246.546204 151.988815 247.142181 150.33696 247.283295 C 149.316116 247.370575 148.063309 247.485229 147.552872 247.538269 C 146.508286 247.64679 143.111679 247.885712 140.128693 248.060394 C 135.605911 248.325317 125.355019 248.405029 120.772667 248.210876 Z M 400.484528 248.373322 C 400.423706 248.319885 397.987701 248.199585 395.071045 248.105927 C 392.154358 248.012268 389.350403 247.885193 388.839966 247.823425 C 388.32962 247.761658 386.868195 247.634705 385.592407 247.54126 C 384.31662 247.447815 382.944489 247.331482 382.543182 247.282684 C 382.141876 247.234161 381.037933 247.118683 380.090027 247.026642 C 378.585815 246.880463 375.826019 246.528015 373.72641 246.213928 C 373.361847 246.159332 372.526611 246.042328 371.870361 245.953827 C 361.722015 244.584839 346.027252 240.774658 334.844757 236.965302 C 322.785034 232.857025 313.521118 227.159424 304.429352 218.25885 C 293.795227 207.848328 287.054291 196.128143 282.929321 180.87738 C 279.478851 168.120361 277.451904 156.327545 276.021484 140.686798 C 275.345825 133.298676 275.340057 114.050781 276.011871 108.30896 C 276.078217 107.741821 276.263397 105.786346 276.423401 103.96344 C 277.626373 90.25647 281.360657 71.398193 284.894897 61.18158 C 290.332611 45.462463 300.474518 31.820618 313.80246 22.298218 C 322.345795 16.194214 330.423676 12.581116 344.559906 8.540833 C 376.917328 -0.707275 411.921967 -2.229858 444.919373 4.175415 C 457.88266 6.691833 471.730072 10.614929 479.515045 13.976685 C 498.80838 22.307922 514.024719 38.066162 521.921082 57.892761 C 524.864075 65.282104 528.054382 78.327148 530.015198 90.989441 L 530.695557 95.382813 C 533.286133 114.834564 533.500427 131.369904 530.690186 153.414032 L 529.911438 158.319305 C 528.331787 168.270142 525.684814 179.782959 523.419067 186.557831 C 519.472168 198.359436 513.199158 208.602142 504.575592 217.325562 C 496.606201 225.387299 488.037476 231.128601 477.695404 235.336212 C 468.847443 238.935913 451.731934 243.427979 439.216034 245.435364 C 437.684753 245.680939 436.241211 245.917053 436.008148 245.960022 C 435.775116 246.003204 434.951599 246.11853 434.178131 246.216736 C 433.404663 246.314972 432.557983 246.436462 432.2966 246.486755 C 432.035156 246.537415 431.009247 246.659943 430.016754 246.759735 C 429.024292 246.859467 428.01474 246.977905 427.773346 247.022888 C 427.32312 247.10672 422.669128 247.551147 419.594879 247.803925 C 415.124664 248.171448 400.739685 248.600037 400.481934 248.373322 Z M 414.110107 179.373779 C 419.312592 178.864044 424.552582 177.875793 427.450287 176.858002 C 436.796997 173.57486 444.624908 166.557404 448.738068 157.7742 C 450.823395 153.321228 453.139862 144.106018 454.233215 135.914093 C 454.810669 131.587006 454.90329 118.59256 454.388184 114.171753 C 453.403198 105.71875 451.328491 96.822174 449.167358 91.784119 C 447.275635 87.374207 443.787994 82.443024 440.339081 79.301758 C 436.721527 76.006805 431.581543 73.021759 426.889069 71.490479 C 424.566101 70.732483 419.441986 69.729736 415.089844 69.181641 C 411.340332 68.709442 396.253082 68.707153 392.817261 69.176331 C 382.562592 70.58255 377.842621 72.103363 372.266022 75.798096 C 366.65329 79.516785 362.436737 84.326202 359.546173 90.306244 C 356.859406 95.864838 354.533112 105.455811 353.53299 115.097809 C 353.119812 119.081543 353.130737 130.047729 353.551666 133.923492 C 354.303986 140.848633 356.076599 149.207367 357.881287 154.340088 C 362.209747 166.650452 372.538971 175.555786 385.525543 178.173492 C 394.235748 179.929169 404.170746 180.345642 414.110077 179.371796 Z"/>
</svg>
