<?xml version="1.0" encoding="UTF-8" standalone="no"?><!DOCTYPE svg PUBLIC "-//W3C//DTD SVG 1.1//EN" "http://www.w3.org/Graphics/SVG/1.1/DTD/svg11.dtd"><svg width="100%" height="100%" viewBox="0 0 1527 1527" version="1.1" xmlns="http://www.w3.org/2000/svg" xmlns:xlink="http://www.w3.org/1999/xlink" xml:space="preserve" xmlns:serif="http://www.serif.com/" style="fill-rule:evenodd;clip-rule:evenodd;stroke-linejoin:round;stroke-miterlimit:2;"><path d="M720.58,0.979c-149.4,8.4 -292.1,60 -412,148.7c-47.7,35.3 -95.2,80.4 -134.7,127.9c-38.4,46.2 -76.5,106.1 -101.7,160.1c-39.5,84.5 -61.5,166.4 -70.3,261.2c-2.2,24.6 -2.6,99.7 -0.5,124c14.9,175.1 83,330.7 200.9,459.2c48.8,53.2 112,104 175.8,141.4c90.2,52.7 193.7,87.1 297,98.8c32.3,3.7 41.6,4.1 88,4.1c47.8,0 57.1,-0.5 91.5,-4.6c252,-29.9 473.6,-184.9 589.5,-412.4c42.7,-83.8 69.7,-176.1 78.9,-270c5.5,-55.3 4.6,-117.8 -2.5,-173.5c-16.3,-129.4 -67.1,-254.6 -145.8,-359.4c-130.1,-173.3 -323.6,-282.3 -538.1,-303.1c-35.1,-3.4 -81.5,-4.3 -116,-2.4Zm54,276.9c25.5,3.1 47.8,13.9 65.4,31.4c18.3,18.5 29.3,42 31.6,68c0.6,6.3 1,52 1,105.8c0,52.2 0.1,94.8 0.3,94.8c0.2,0 53.2,-7.7 117.8,-17.1c64.6,-9.3 121.2,-17.3 125.9,-17.6c22,-1.5 47.6,6 67.5,19.8c9.9,6.8 24.1,21.8 30.4,32.1c9.8,15.8 15,32.9 15.8,51.9c1.4,31.7 -8.6,58.2 -30.5,81.1c-13.8,14.3 -29.8,23.9 -48.8,29.2c-5.8,1.7 -45.6,7.8 -113.9,17.6c-57.7,8.3 -105.5,15.2 -106.2,15.3c-0.6,0.1 32.6,66.1 75.4,149.7c42.1,82.2 78.1,153 80,157.2c14.9,33.7 11.1,73.9 -9.8,104.9c-5.4,8.2 -17.5,20.7 -26,26.9c-25.4,18.9 -60.3,25.6 -91.4,17.6c-11.9,-3.1 -29.2,-11.4 -38.6,-18.5c-8.6,-6.6 -19.3,-17.9 -25,-26.6c-2.6,-3.9 -33.4,-63.3 -68.6,-132.2l-64,-125.2l-64.3,125.7c-35.3,69.1 -66.3,128.8 -68.9,132.7c-13.9,20.9 -38.1,37.7 -64.2,44.5c-11.6,3 -31.3,3.8 -43.4,1.7c-35.8,-6.3 -64.8,-27.9 -80.5,-60.1c-12,-24.4 -14.3,-54.6 -6.3,-80.1c3.1,-9.9 -2.2,0.8 86.5,-172.8c40.7,-79.6 73.9,-144.9 73.7,-145.1c-0.2,-0.2 -48.1,-7.2 -106.4,-15.6c-67.2,-9.7 -109.1,-16.1 -114.5,-17.7c-39.6,-11.2 -69.8,-44.1 -77.4,-84.3c-2.2,-11.5 -2.1,-31.1 0.3,-42.5c8.2,-39.7 37.7,-71.7 76.3,-82.9c11.3,-3.3 26.2,-5 36.2,-4.2c4.4,0.3 60.9,8.2 125.4,17.6c64.5,9.3 117.5,17 117.7,17c0.2,0 0.6,-46.7 0.8,-103.8c0.4,-113.1 0,-106.8 6.2,-124.3c10.5,-30.1 35.6,-55.3 66,-66.2c15.7,-5.6 32.7,-7.6 48.5,-5.7Z" style="fill:#ec6608;fill-rule:nonzero;"/></svg>