<?xml version="1.0" encoding="UTF-8"?>
<!-- Generated by Pixelmator Pro 3.7.1 -->
<svg width="7014" height="2038" viewBox="0 0 7014 2038" xmlns="http://www.w3.org/2000/svg">
    <g id="Group">
        <path id="Path" fill="#fd9a00" stroke="none" d="M 962 2.133301 C 761.733337 12.93335 568.266663 83.599976 407.333344 204.666626 C 182.933334 373.599976 37.466667 627.466675 6.8 904 C 1.866667 947.333374 0.8 968.666626 0.8 1018 C 0.8 1102.533325 8.533334 1172.133301 26.799999 1250.666748 C 89.066666 1518.133301 258.933319 1750.666626 496.133331 1893.06665 C 636 1977.06665 792.93335 2025.466675 956.666687 2035.333374 C 973.733337 2036.400024 1624.133301 2036.666626 3213.333252 2036.400024 L 5446 2036 L 5440.133301 2032.93335 C 5385.466797 2003.733276 5312.133301 1953.733276 5257.333496 1908.133301 C 5215.866699 1873.733398 5160.799805 1820.266602 5126.799805 1781.333374 C 4897.866699 1519.733398 4798.933105 1176 4854 833.199951 C 4878.133301 683.333374 4933.200195 537.733276 5015.866699 405.333374 C 5079.466797 303.599976 5164 207.199951 5259.333496 128 C 5307.866699 87.866699 5366.933105 46.93335 5423.466797 14.533325 C 5435.866699 7.466675 5446.266602 1.466675 5446.533203 1.199951 C 5447.733398 0.133301 981.333313 1.06665 962 2.133301 Z M 4492.933105 487.866699 C 4514.399902 494.800049 4532.799805 510.666626 4542.799805 530.666626 C 4552.799805 550.800049 4552 509.733276 4552 1014.666687 C 4552 1408.800049 4551.733398 1470.533325 4550 1478.666748 C 4544.933105 1503.06665 4527.200195 1525.866699 4505.066895 1536.533325 C 4489.866699 1543.866699 4477.466797 1546.400024 4461.333496 1545.599976 C 4424 1543.466675 4395.600098 1522.133301 4382.399902 1486.400024 C 4379.866699 1479.466675 4379.466797 1475.199951 4378.933105 1445.599976 L 4378.399902 1412.666748 L 4368 1426.266602 C 4314.133301 1496.93335 4249.866699 1537.599976 4170.799805 1550.93335 C 4150.266602 1554.400024 4089.466553 1554.400024 4068.666748 1550.93335 C 3985.466553 1536.93335 3911.866699 1495.199951 3858.266602 1431.333252 C 3820.266602 1385.866699 3790.800049 1323.733398 3778.133301 1262 C 3759.06665 1168.266602 3766.800049 1067.599976 3799.333252 986.666626 C 3847.199951 867.333374 3945.866699 787.733276 4070 768.400024 C 4095.06665 764.533325 4143.333496 764.266724 4167.333496 767.866699 C 4238.133301 778.533325 4295.200195 808.266724 4346 860.800049 C 4354.133301 869.199951 4364.533203 880.93335 4369.333496 886.93335 L 4378 898 L 4378.666504 724.266724 L 4379.333496 550.666626 L 4383.200195 540.666626 C 4394.133301 512.266724 4417.333496 491.599976 4445.333496 485.333374 C 4458.399902 482.400024 4479.200195 483.466675 4492.933105 487.866699 Z M 864.799988 530.533325 C 893.333313 539.599976 913.866638 560.533325 922.93335 590 L 925.866638 600 L 926.666687 876.666626 C 927.466675 1151.333252 927.466675 1153.466675 930.266663 1170.666748 C 941.466675 1238.666748 962 1284.400024 997.866638 1321.733398 C 1025.866699 1350.800049 1058.93335 1370 1099.199951 1380.666748 C 1168.533325 1398.93335 1250 1392.533325 1306.533325 1364.266602 C 1377.06665 1328.93335 1417.199951 1264.533325 1430.133301 1166 C 1432.400024 1149.466675 1432.666626 1126.266602 1433.333374 872 C 1434 608.800049 1434.133301 595.599976 1436.533325 588.666626 C 1446.266724 559.333374 1469.733276 537.06665 1498.666626 529.199951 C 1510.266724 526.133301 1532.400024 526 1544 529.06665 C 1559.333374 533.06665 1571.599976 540.133301 1583.466675 552 C 1595.733276 564.266724 1602.533325 576 1606.666626 592.133301 C 1609.333374 602.266724 1609.333374 608 1609.333374 868.533325 C 1609.333374 1038.133301 1608.800049 1141.733398 1607.866699 1154 C 1606 1181.06665 1602 1211.199951 1597.199951 1234.666748 C 1562.533325 1404.400024 1456.133301 1511.199951 1288.666626 1544.533325 C 1251.599976 1551.866699 1233.199951 1553.333374 1177.333374 1553.333374 C 1119.333374 1553.333374 1103.333374 1551.866699 1061.06665 1543.333374 C 893.866638 1509.06665 787.06665 1395.333252 758.133362 1220.666748 C 749.599976 1169.199951 750 1186.533325 750 878 L 750 597.333374 L 753.599976 586.533325 C 760.133362 567.599976 771.200012 552.93335 787.466675 542.133301 C 810.666687 526.533325 838.799988 522.400024 864.799988 530.533325 Z M 2682 529.333374 C 2696.666748 533.06665 2708.93335 540.266724 2720.666748 552 C 2733.06665 564.266724 2740 576.266724 2744 592.133301 C 2746.666748 602.266724 2746.666748 608.666626 2746.666748 990.266724 L 2746.666748 1378 L 2978.399902 1378 C 3235.06665 1378 3219.600098 1377.466675 3238.666748 1386.93335 C 3252.533447 1393.733398 3267.199951 1408.400024 3273.866699 1422.400024 C 3285.333252 1446.133301 3285.333252 1471.599976 3274 1494.400024 C 3265.600098 1510.93335 3253.466553 1522.800049 3236.399902 1530.93335 C 3217.866699 1539.866699 3234 1539.466675 2924.666748 1539.06665 C 2610.133301 1538.666626 2640.266602 1539.599976 2617.466553 1528.400024 C 2598.266602 1519.06665 2583.06665 1501.466675 2574.93335 1479.06665 L 2571.333252 1469.333252 L 2570.93335 1035.466675 C 2570.666748 552 2569.733398 595.333374 2580.133301 574.266724 C 2588.93335 556.133301 2605.06665 541.199951 2624.666748 533.06665 C 2630.533447 530.666626 2638 528.666626 2649.333252 526.800049 C 2655.199951 525.733276 2673.733398 527.199951 2682 529.333374 Z M 3469.866699 568.133301 C 3493.199951 574.133301 3515.06665 592.400024 3525.466553 614.666626 C 3533.199951 631.199951 3533.333252 632.133301 3533.333252 709.599976 L 3533.333252 780.666626 L 3606.399902 780.666626 C 3686.800049 780.666626 3688.533447 780.800049 3705.199951 789.06665 C 3717.199951 794.93335 3732.800049 810.400024 3738.533447 822 C 3743.06665 831.466675 3746.666748 846 3746.666748 855.333374 C 3746.666748 858.666626 3745.733398 865.466675 3744.666748 870.400024 C 3739.333252 895.733276 3721.600098 915.466675 3694.93335 925.866699 L 3686 929.333374 L 3609.733398 929.733276 L 3533.333252 930.133301 L 3533.333252 1116.400024 C 3533.466553 1220.133301 3534 1308.533325 3534.666748 1316 C 3536.133301 1332.533325 3538.800049 1342.533325 3544.666748 1355.06665 C 3553.466553 1373.733398 3571.866699 1387.866699 3594.666748 1393.333252 C 3608.533447 1396.666748 3632.800049 1397.333252 3651.600098 1394.800049 C 3678 1391.333252 3686.399902 1392.266602 3704 1400.800049 C 3715.600098 1406.533325 3730.133301 1421.06665 3735.733398 1432.666748 C 3746 1453.333252 3746 1474.533325 3736.133301 1494.666748 C 3725.866699 1515.333252 3712.399902 1526.533325 3688.399902 1534.533325 C 3653.199951 1546 3629.333252 1550 3588.533447 1550.93335 C 3554.399902 1551.733398 3536.93335 1550.533325 3511.199951 1545.333374 C 3431.733398 1529.333374 3383.06665 1480.266602 3366.800049 1399.866699 C 3360.666748 1369.866699 3360.800049 1375.333252 3360.399902 1147.599976 L 3359.866699 930 L 3341.466553 930 C 3310.93335 930 3296.133301 924.800049 3279.199951 908 C 3263.866699 892.93335 3257.333252 876.93335 3257.333252 854.666626 C 3257.333252 833.333374 3264.800049 815.866699 3280 801.466675 C 3296.666748 785.866699 3311.733398 780.666626 3340.93335 780.666626 L 3360 780.666626 L 3360 712.666626 C 3360 656 3360.399902 642.800049 3362.133301 634.400024 C 3369.600098 598.400024 3397.733398 572 3435.333252 565.866699 C 3443.866699 564.533325 3459.866699 565.599976 3469.866699 568.133301 Z M 2203.333252 767.866699 C 2236.800049 772.800049 2261.06665 780.266724 2288.666748 794 C 2365.600098 832.266724 2411.199951 904.266724 2424.266602 1007.333374 C 2425.600098 1018.400024 2426 1068.266602 2426 1249.333252 L 2426 1477.333252 L 2422.399902 1487.333252 C 2417.06665 1502.400024 2412.533447 1509.599976 2401.333252 1520.93335 C 2383.733398 1538.666626 2361.600098 1546.93335 2336 1545.599976 C 2299.466553 1543.599976 2269.866699 1522 2257.600098 1488.400024 L 2254 1478.666748 L 2253.199951 1278.666748 C 2252.399902 1059.733398 2252.800049 1070.133301 2244.533447 1038.266602 C 2228 974.800049 2185.333252 935.06665 2122.666748 925.199951 C 2105.600098 922.533325 2066 923.199951 2051.333252 926.533325 C 1983.599976 941.866699 1938.266724 989.866699 1924.666626 1060.666748 C 1923.466675 1066.93335 1922.133301 1073.199951 1921.733276 1074.666748 C 1921.199951 1076.133301 1920.533325 1167.06665 1920 1276.666748 L 1919.333374 1476 L 1915.599976 1486.666748 C 1907.466675 1509.733398 1893.466675 1525.866699 1872.93335 1536 C 1846.400024 1549.06665 1819.866699 1549.333374 1793.466675 1536.666626 C 1778.266724 1529.333374 1762.666626 1514 1755.599976 1499.333252 C 1745.06665 1477.866699 1746 1509.333252 1746 1159.333252 C 1746 865.333374 1746.133301 846.133301 1748.400024 838 C 1756.266724 808.800049 1777.199951 785.733276 1803.733276 776.800049 C 1845.599976 762.666626 1890.666626 781.06665 1910.400024 820.133301 C 1917.466675 834 1919.06665 842.800049 1919.866699 870.266724 L 1920.666626 895.333374 L 1932 880.266724 C 1944.93335 863.199951 1972 834.800049 1986.666626 822.93335 C 2028 789.599976 2076.133301 770.533325 2132 765.466675 C 2144 764.400024 2190.266602 766 2203.333252 767.866699 Z"/>
        <path id="path1" fill="#fd9a00" stroke="none" d="M 4137.333496 916.666626 C 4087.199951 922.800049 4046 942.533325 4012 976.666626 C 3994.399902 994.266724 3983.333252 1009.333374 3972.93335 1029.733398 C 3962.800049 1049.466675 3957.866699 1062.400024 3952.666748 1082.666748 C 3944.533447 1114.133301 3941.466553 1148.666748 3943.866699 1180.666748 C 3947.06665 1222 3954.133301 1248.93335 3970.800049 1282.666748 C 4008 1358.266602 4079.199951 1403.333252 4161.333496 1403.333252 C 4289.866699 1403.333252 4386.799805 1290.93335 4380.933105 1148.666748 C 4379.600098 1116.400024 4374.266602 1088.400024 4364.399902 1062 C 4336.399902 986.800049 4275.600098 934 4200.533203 919.333374 C 4183.866699 916.133301 4152.933105 914.800049 4137.333496 916.666626 Z"/>
        <path id="path2" fill="#fd9a00" stroke="none" d="M 5938.666504 2.133301 C 5739.466797 13.333374 5549.200195 82.133301 5389.333496 200.400024 C 5325.733398 247.466675 5262.399902 307.599976 5209.733398 370.93335 C 5158.533203 432.533325 5107.733398 512.400024 5074.133301 584.400024 C 5021.466797 697.06665 4992.133301 806.266724 4980.399902 932.666626 C 4977.466797 965.466675 4976.933105 1065.599976 4979.733398 1098 C 4999.600098 1331.466675 5090.399902 1538.93335 5247.600098 1710.266602 C 5312.666504 1781.199951 5396.933105 1848.93335 5482 1898.800049 C 5602.266602 1969.06665 5740.266602 2014.93335 5878 2030.533325 C 5921.066895 2035.466675 5933.466797 2036 5995.333496 2036 C 6059.066895 2036 6071.466797 2035.333374 6117.333496 2029.866699 C 6453.333496 1990 6748.799805 1783.333374 6903.333496 1480 C 6960.266602 1368.266602 6996.266602 1245.199951 7008.533203 1120 C 7015.866699 1046.266602 7014.666504 962.93335 7005.200195 888.666626 C 6983.466797 716.133301 6915.733398 549.199951 6810.799805 409.466675 C 6637.333496 178.400024 6379.333496 33.06665 6093.333496 5.333374 C 6046.533203 0.800049 5984.666504 -0.400024 5938.666504 2.133301 Z M 6010.666504 371.333374 C 6044.666504 375.466675 6074.399902 389.866699 6097.866699 413.199951 C 6122.266602 437.866699 6136.933105 469.199951 6140 503.866699 C 6140.799805 512.266724 6141.333496 573.199951 6141.333496 644.93335 C 6141.333496 714.533325 6141.466797 771.333374 6141.733398 771.333374 C 6142 771.333374 6212.666504 761.06665 6298.799805 748.533325 C 6384.933105 736.133301 6460.399902 725.466675 6466.666504 725.06665 C 6496 723.06665 6530.133301 733.06665 6556.666504 751.466675 C 6569.866699 760.533325 6588.799805 780.533325 6597.200195 794.266724 C 6610.266602 815.333374 6617.200195 838.133301 6618.266602 863.466675 C 6620.133301 905.733276 6606.799805 941.06665 6577.600098 971.599976 C 6559.200195 990.666626 6537.866699 1003.466675 6512.533203 1010.533325 C 6504.799805 1012.800049 6451.733398 1020.93335 6360.666504 1034 C 6283.733398 1045.06665 6220 1054.266602 6219.066895 1054.400024 C 6218.266602 1054.533325 6262.533203 1142.533325 6319.600098 1254 C 6375.733398 1363.599976 6423.733398 1458 6426.266602 1463.599976 C 6446.133301 1508.533325 6441.066895 1562.133301 6413.200195 1603.466675 C 6406 1614.400024 6389.866699 1631.06665 6378.533203 1639.333374 C 6344.666504 1664.533325 6298.133301 1673.466675 6256.666504 1662.800049 C 6240.799805 1658.666626 6217.733398 1647.599976 6205.200195 1638.133301 C 6193.733398 1629.333374 6179.466797 1614.266602 6171.866699 1602.666626 C 6168.399902 1597.466675 6127.333496 1518.266602 6080.399902 1426.400024 L 5995.066895 1259.466675 L 5909.333496 1427.06665 C 5862.266602 1519.199951 5820.933105 1598.800049 5817.466797 1604 C 5798.933105 1631.866699 5766.666504 1654.266602 5731.866699 1663.333374 C 5716.399902 1667.333374 5690.133301 1668.400024 5674 1665.599976 C 5626.266602 1657.199951 5587.600098 1628.400024 5566.666504 1585.466675 C 5550.666504 1552.93335 5547.600098 1512.666748 5558.266602 1478.666748 C 5562.399902 1465.466675 5555.333496 1479.733398 5673.600098 1248.266602 C 5727.866699 1142.133301 5772.133301 1055.06665 5771.866699 1054.800049 C 5771.600098 1054.533325 5707.733398 1045.199951 5630 1034 C 5540.399902 1021.06665 5484.533203 1012.533325 5477.333496 1010.400024 C 5424.533203 995.466675 5384.266602 951.599976 5374.133301 898 C 5371.200195 882.666626 5371.333496 856.533325 5374.533203 841.333374 C 5385.466797 788.400024 5424.799805 745.733276 5476.266602 730.800049 C 5491.333496 726.400024 5511.200195 724.133301 5524.533203 725.199951 C 5530.399902 725.599976 5605.733398 736.133301 5691.733398 748.666626 C 5777.733398 761.06665 5848.399902 771.333374 5848.666504 771.333374 C 5848.933105 771.333374 5849.466797 709.06665 5849.733398 632.93335 C 5850.266602 482.133301 5849.733398 490.533325 5858 467.199951 C 5872 427.06665 5905.466797 393.466675 5946 378.93335 C 5966.933105 371.466675 5989.600098 368.800049 6010.666504 371.333374 Z"/>
    </g>
</svg>
