<?xml version="1.0" encoding="UTF-8" standalone="no"?>
<!DOCTYPE svg PUBLIC "-//W3C//DTD SVG 1.1//EN" "http://www.w3.org/Graphics/SVG/1.1/DTD/svg11.dtd">
<svg width="100%" height="100%" viewBox="0 0 1920 600" version="1.1" xmlns="http://www.w3.org/2000/svg" xmlns:xlink="http://www.w3.org/1999/xlink" xml:space="preserve" xmlns:serif="http://www.serif.com/" style="fill-rule:evenodd;clip-rule:evenodd;stroke-linejoin:round;stroke-miterlimit:2;">
    <g transform="matrix(1,0,0,1,0.189632,-104.66)">
        <g>
            <g transform="matrix(2.77942,0,0,2.77942,-551.203,-637.393)">
                <g transform="matrix(96,0,0,96,219.162,373.273)">
                    <path d="M0.754,-0.714L0.762,-0.633L0.496,-0.089C0.496,-0.089 0.493,-0.083 0.488,-0.072C0.482,-0.06 0.476,-0.046 0.471,-0.03C0.465,-0.014 0.461,0.001 0.46,0.016L0.45,0.016L0.428,-0.055L0.754,-0.714ZM0.118,-0.073L0.118,-0L0.007,-0L0.007,-0.01L0.023,-0.01C0.041,-0.01 0.057,-0.016 0.071,-0.027C0.085,-0.038 0.093,-0.053 0.096,-0.073L0.118,-0.073ZM0.152,-0.057L0.152,-0.052C0.152,-0.041 0.156,-0.032 0.164,-0.023C0.171,-0.014 0.18,-0.009 0.191,-0.009L0.206,-0.009L0.206,-0L0.145,-0L0.145,-0.057L0.152,-0.057ZM0.174,-0.714L0.183,-0.714L0.208,-0.641L0.147,-0L0.087,-0L0.174,-0.714ZM0.183,-0.714L0.484,-0.12L0.45,0.016L0.162,-0.56L0.183,-0.714ZM0.763,-0.714L0.852,-0L0.746,-0L0.693,-0.557L0.754,-0.714L0.763,-0.714ZM0.822,-0.073L0.843,-0.073C0.846,-0.053 0.855,-0.038 0.869,-0.027C0.883,-0.016 0.899,-0.01 0.916,-0.01L0.932,-0.01L0.932,-0L0.822,-0L0.822,-0.073ZM0.741,-0.057L0.748,-0.057L0.748,-0L0.687,-0L0.687,-0.009L0.702,-0.009C0.713,-0.009 0.723,-0.014 0.73,-0.023C0.737,-0.032 0.741,-0.041 0.741,-0.052L0.741,-0.057Z" style="fill-rule:nonzero;"/>
                </g>
                <g transform="matrix(96,0,0,96,309.21,373.273)">
                    <path d="M0.224,-0.7L0.224,-0L0.131,-0L0.131,-0.7L0.224,-0.7ZM0.134,-0.073L0.134,-0L0.054,-0L0.054,-0.01L0.067,-0.01C0.084,-0.01 0.099,-0.016 0.112,-0.029C0.124,-0.041 0.13,-0.056 0.131,-0.073L0.134,-0.073ZM0.134,-0.627L0.131,-0.627C0.13,-0.644 0.124,-0.659 0.112,-0.672C0.099,-0.684 0.084,-0.69 0.067,-0.69L0.054,-0.69L0.054,-0.7L0.134,-0.7L0.134,-0.627ZM0.221,-0.073L0.224,-0.073C0.225,-0.056 0.231,-0.041 0.244,-0.029C0.256,-0.016 0.271,-0.01 0.288,-0.01L0.301,-0.01L0.301,-0L0.221,-0L0.221,-0.073ZM0.221,-0.627L0.221,-0.7L0.301,-0.7L0.301,-0.69L0.288,-0.69C0.271,-0.69 0.256,-0.684 0.244,-0.672C0.231,-0.659 0.225,-0.644 0.224,-0.627L0.221,-0.627Z" style="fill-rule:nonzero;"/>
                </g>
                <g transform="matrix(96,0,0,96,343.194,373.273)">
                    <path d="M0.224,-0.7L0.224,-0L0.131,-0L0.131,-0.7L0.224,-0.7ZM0.492,-0.035L0.5,-0L0.221,-0L0.221,-0.035L0.492,-0.035ZM0.557,-0.176L0.503,-0L0.327,-0L0.363,-0.035C0.398,-0.035 0.427,-0.041 0.45,-0.053C0.473,-0.064 0.493,-0.081 0.508,-0.102C0.523,-0.123 0.536,-0.148 0.547,-0.176L0.557,-0.176ZM0.134,-0.073L0.134,-0L0.054,-0L0.054,-0.01L0.067,-0.01C0.084,-0.01 0.099,-0.016 0.112,-0.029C0.124,-0.041 0.13,-0.056 0.131,-0.073L0.134,-0.073ZM0.134,-0.627L0.131,-0.627C0.13,-0.644 0.124,-0.659 0.112,-0.672C0.099,-0.684 0.084,-0.69 0.067,-0.69L0.054,-0.69L0.054,-0.7L0.134,-0.7L0.134,-0.627ZM0.221,-0.627L0.221,-0.7L0.301,-0.7L0.301,-0.69L0.288,-0.69C0.271,-0.69 0.256,-0.684 0.244,-0.672C0.231,-0.659 0.225,-0.644 0.224,-0.627L0.221,-0.627Z" style="fill-rule:nonzero;"/>
                </g>
                <g transform="matrix(96,0,0,96,397.722,373.273)">
                    <path d="M0.224,-0.7L0.224,-0L0.131,-0L0.131,-0.7L0.224,-0.7ZM0.492,-0.035L0.5,-0L0.221,-0L0.221,-0.035L0.492,-0.035ZM0.557,-0.176L0.503,-0L0.327,-0L0.363,-0.035C0.398,-0.035 0.427,-0.041 0.45,-0.053C0.473,-0.064 0.493,-0.081 0.508,-0.102C0.523,-0.123 0.536,-0.148 0.547,-0.176L0.557,-0.176ZM0.134,-0.073L0.134,-0L0.054,-0L0.054,-0.01L0.067,-0.01C0.084,-0.01 0.099,-0.016 0.112,-0.029C0.124,-0.041 0.13,-0.056 0.131,-0.073L0.134,-0.073ZM0.134,-0.627L0.131,-0.627C0.13,-0.644 0.124,-0.659 0.112,-0.672C0.099,-0.684 0.084,-0.69 0.067,-0.69L0.054,-0.69L0.054,-0.7L0.134,-0.7L0.134,-0.627ZM0.221,-0.627L0.221,-0.7L0.301,-0.7L0.301,-0.69L0.288,-0.69C0.271,-0.69 0.256,-0.684 0.244,-0.672C0.231,-0.659 0.225,-0.644 0.224,-0.627L0.221,-0.627Z" style="fill-rule:nonzero;"/>
                </g>
                <g transform="matrix(96,0,0,96,452.25,373.273)">
                    <path d="M0.224,-0.7L0.224,-0L0.131,-0L0.131,-0.7L0.224,-0.7ZM0.492,-0.035L0.5,-0L0.221,-0L0.221,-0.035L0.492,-0.035ZM0.451,-0.362L0.451,-0.328L0.221,-0.328L0.221,-0.362L0.451,-0.362ZM0.496,-0.7L0.496,-0.665L0.221,-0.665L0.221,-0.7L0.496,-0.7ZM0.557,-0.176L0.503,-0L0.327,-0L0.363,-0.035C0.398,-0.035 0.427,-0.041 0.45,-0.053C0.473,-0.064 0.493,-0.081 0.508,-0.102C0.523,-0.123 0.536,-0.148 0.547,-0.176L0.557,-0.176ZM0.451,-0.33L0.451,-0.254L0.441,-0.254L0.441,-0.267C0.441,-0.284 0.435,-0.298 0.424,-0.31C0.413,-0.322 0.398,-0.328 0.381,-0.328L0.381,-0.33L0.451,-0.33ZM0.451,-0.436L0.451,-0.36L0.381,-0.36L0.381,-0.362C0.398,-0.363 0.413,-0.369 0.424,-0.381C0.435,-0.393 0.441,-0.407 0.441,-0.424L0.441,-0.436L0.451,-0.436ZM0.496,-0.668L0.496,-0.576L0.486,-0.576L0.486,-0.592C0.486,-0.613 0.479,-0.63 0.466,-0.644C0.452,-0.658 0.434,-0.665 0.413,-0.666L0.413,-0.668L0.496,-0.668ZM0.496,-0.718L0.496,-0.689L0.374,-0.7C0.389,-0.7 0.404,-0.701 0.421,-0.703C0.437,-0.705 0.452,-0.707 0.466,-0.71C0.48,-0.713 0.49,-0.715 0.496,-0.718ZM0.134,-0.073L0.134,-0L0.054,-0L0.054,-0.01L0.067,-0.01C0.084,-0.01 0.099,-0.016 0.112,-0.029C0.124,-0.041 0.13,-0.056 0.131,-0.073L0.134,-0.073ZM0.134,-0.627L0.131,-0.627C0.131,-0.644 0.125,-0.659 0.112,-0.672C0.099,-0.684 0.084,-0.69 0.067,-0.69L0.055,-0.69L0.054,-0.7L0.134,-0.7L0.134,-0.627Z" style="fill-rule:nonzero;"/>
                </g>
                <g transform="matrix(96,0,0,96,508.602,373.273)">
                    <path d="M0.12,-0.715L0.72,-0.099L0.73,0.014L0.13,-0.601L0.12,-0.715ZM0.123,-0.071L0.123,-0L0.04,-0L0.04,-0.01L0.059,-0.01C0.076,-0.01 0.09,-0.016 0.102,-0.028C0.114,-0.04 0.12,-0.054 0.12,-0.071L0.123,-0.071ZM0.198,-0.071C0.198,-0.054 0.204,-0.04 0.216,-0.028C0.228,-0.016 0.242,-0.01 0.259,-0.01L0.278,-0.01L0.278,-0L0.195,-0L0.195,-0.071L0.198,-0.071ZM0.12,-0.715L0.197,-0.627L0.198,-0L0.12,-0L0.12,-0.59C0.12,-0.625 0.118,-0.655 0.115,-0.679C0.112,-0.703 0.11,-0.715 0.11,-0.715L0.12,-0.715ZM0.729,-0.7L0.729,-0.114C0.729,-0.091 0.73,-0.07 0.732,-0.051C0.733,-0.031 0.735,-0.015 0.737,-0.004C0.738,0.008 0.739,0.014 0.739,0.014L0.73,0.014L0.652,-0.075L0.652,-0.7L0.729,-0.7ZM0.809,-0.7L0.809,-0.69L0.791,-0.69C0.774,-0.69 0.76,-0.684 0.748,-0.673C0.736,-0.661 0.73,-0.646 0.729,-0.629L0.726,-0.629L0.726,-0.7L0.809,-0.7ZM0.571,-0.7L0.654,-0.7L0.654,-0.629L0.652,-0.629C0.651,-0.646 0.645,-0.661 0.634,-0.673C0.622,-0.684 0.607,-0.69 0.59,-0.69L0.571,-0.69L0.571,-0.7Z" style="fill-rule:nonzero;"/>
                </g>
                <g transform="matrix(96,0,0,96,588.954,373.273)">
                    <path d="M0.12,-0.715L0.72,-0.099L0.73,0.014L0.13,-0.601L0.12,-0.715ZM0.123,-0.071L0.123,-0L0.04,-0L0.04,-0.01L0.059,-0.01C0.076,-0.01 0.09,-0.016 0.102,-0.028C0.114,-0.04 0.12,-0.054 0.12,-0.071L0.123,-0.071ZM0.198,-0.071C0.198,-0.054 0.204,-0.04 0.216,-0.028C0.228,-0.016 0.242,-0.01 0.259,-0.01L0.278,-0.01L0.278,-0L0.195,-0L0.195,-0.071L0.198,-0.071ZM0.12,-0.715L0.197,-0.627L0.198,-0L0.12,-0L0.12,-0.59C0.12,-0.625 0.118,-0.655 0.115,-0.679C0.112,-0.703 0.11,-0.715 0.11,-0.715L0.12,-0.715ZM0.729,-0.7L0.729,-0.114C0.729,-0.091 0.73,-0.07 0.732,-0.051C0.733,-0.031 0.735,-0.015 0.737,-0.004C0.738,0.008 0.739,0.014 0.739,0.014L0.73,0.014L0.652,-0.075L0.652,-0.7L0.729,-0.7ZM0.809,-0.7L0.809,-0.69L0.791,-0.69C0.774,-0.69 0.76,-0.684 0.748,-0.673C0.736,-0.661 0.73,-0.646 0.729,-0.629L0.726,-0.629L0.726,-0.7L0.809,-0.7ZM0.571,-0.7L0.654,-0.7L0.654,-0.629L0.652,-0.629C0.651,-0.646 0.645,-0.661 0.634,-0.673C0.622,-0.684 0.607,-0.69 0.59,-0.69L0.571,-0.69L0.571,-0.7Z" style="fill-rule:nonzero;"/>
                </g>
                <g transform="matrix(96,0,0,96,669.306,373.273)">
                    <path d="M0.224,-0.7L0.224,-0L0.131,-0L0.131,-0.7L0.224,-0.7ZM0.134,-0.073L0.134,-0L0.054,-0L0.054,-0.01L0.067,-0.01C0.084,-0.01 0.099,-0.016 0.112,-0.029C0.124,-0.041 0.13,-0.056 0.131,-0.073L0.134,-0.073ZM0.134,-0.627L0.131,-0.627C0.13,-0.644 0.124,-0.659 0.112,-0.672C0.099,-0.684 0.084,-0.69 0.067,-0.69L0.054,-0.69L0.054,-0.7L0.134,-0.7L0.134,-0.627ZM0.221,-0.073L0.224,-0.073C0.225,-0.056 0.231,-0.041 0.244,-0.029C0.256,-0.016 0.271,-0.01 0.288,-0.01L0.301,-0.01L0.301,-0L0.221,-0L0.221,-0.073ZM0.221,-0.627L0.221,-0.7L0.301,-0.7L0.301,-0.69L0.288,-0.69C0.271,-0.69 0.256,-0.684 0.244,-0.672C0.231,-0.659 0.225,-0.644 0.224,-0.627L0.221,-0.627Z" style="fill-rule:nonzero;"/>
                </g>
                <g transform="matrix(96,0,0,96,703.29,373.273)">
                    <path d="M0.208,-0.7L0.208,-0.26C0.208,-0.212 0.217,-0.17 0.234,-0.134C0.251,-0.098 0.275,-0.07 0.306,-0.051C0.337,-0.031 0.373,-0.021 0.414,-0.021C0.457,-0.021 0.495,-0.03 0.528,-0.049C0.56,-0.068 0.585,-0.094 0.603,-0.128C0.62,-0.162 0.629,-0.202 0.629,-0.247L0.629,-0.7L0.684,-0.7L0.684,-0.249C0.684,-0.196 0.673,-0.15 0.651,-0.111C0.628,-0.072 0.596,-0.041 0.555,-0.019C0.513,0.003 0.464,0.014 0.408,0.014C0.347,0.014 0.295,0.003 0.251,-0.019C0.207,-0.04 0.173,-0.071 0.15,-0.11C0.127,-0.149 0.115,-0.195 0.115,-0.248L0.115,-0.7L0.208,-0.7ZM0.118,-0.7L0.118,-0.64L0.115,-0.64C0.115,-0.655 0.11,-0.667 0.1,-0.676C0.089,-0.685 0.077,-0.69 0.062,-0.69L0.046,-0.69L0.046,-0.7L0.118,-0.7ZM0.277,-0.7L0.277,-0.69L0.261,-0.69C0.246,-0.69 0.234,-0.685 0.224,-0.676C0.213,-0.667 0.208,-0.655 0.208,-0.64L0.206,-0.64L0.206,-0.7L0.277,-0.7ZM0.632,-0.7L0.632,-0.64L0.629,-0.64C0.629,-0.655 0.624,-0.667 0.614,-0.676C0.603,-0.685 0.591,-0.69 0.576,-0.69L0.56,-0.69L0.56,-0.7L0.632,-0.7ZM0.753,-0.7L0.753,-0.69L0.737,-0.69C0.722,-0.69 0.71,-0.685 0.7,-0.676C0.689,-0.667 0.684,-0.655 0.684,-0.64L0.682,-0.64L0.682,-0.7L0.753,-0.7Z" style="fill-rule:nonzero;"/>
                </g>
                <g transform="matrix(96,0,0,96,777.978,373.273)">
                    <path d="M0.754,-0.714L0.762,-0.633L0.496,-0.089C0.496,-0.089 0.493,-0.083 0.488,-0.072C0.482,-0.06 0.476,-0.046 0.471,-0.03C0.465,-0.014 0.461,0.001 0.46,0.016L0.45,0.016L0.428,-0.055L0.754,-0.714ZM0.118,-0.073L0.118,-0L0.007,-0L0.007,-0.01L0.023,-0.01C0.041,-0.01 0.057,-0.016 0.071,-0.027C0.085,-0.038 0.093,-0.053 0.096,-0.073L0.118,-0.073ZM0.152,-0.057L0.152,-0.052C0.152,-0.041 0.156,-0.032 0.164,-0.023C0.171,-0.014 0.18,-0.009 0.191,-0.009L0.206,-0.009L0.206,-0L0.145,-0L0.145,-0.057L0.152,-0.057ZM0.174,-0.714L0.183,-0.714L0.208,-0.641L0.147,-0L0.087,-0L0.174,-0.714ZM0.183,-0.714L0.484,-0.12L0.45,0.016L0.162,-0.56L0.183,-0.714ZM0.763,-0.714L0.852,-0L0.746,-0L0.693,-0.557L0.754,-0.714L0.763,-0.714ZM0.822,-0.073L0.843,-0.073C0.846,-0.053 0.855,-0.038 0.869,-0.027C0.883,-0.016 0.899,-0.01 0.916,-0.01L0.932,-0.01L0.932,-0L0.822,-0L0.822,-0.073ZM0.741,-0.057L0.748,-0.057L0.748,-0L0.687,-0L0.687,-0.009L0.702,-0.009C0.713,-0.009 0.723,-0.014 0.73,-0.023C0.737,-0.032 0.741,-0.041 0.741,-0.052L0.741,-0.057Z" style="fill-rule:nonzero;"/>
                </g>
            </g>
            <g transform="matrix(2.43317,0,0,2.43317,-469.712,-310.699)">
                <g transform="matrix(96,0,0,96,219.162,373.273)">
                    <path d="M0.357,-0.716L0.664,-0.006L0.547,-0.006L0.324,-0.588L0.357,-0.716ZM0.142,-0.073C0.137,-0.06 0.137,-0.048 0.14,-0.039C0.143,-0.03 0.149,-0.023 0.157,-0.018C0.164,-0.013 0.172,-0.01 0.18,-0.01L0.189,-0.01L0.189,-0L-0.016,-0L-0.016,-0.01L-0.007,-0.01C0.008,-0.01 0.024,-0.015 0.041,-0.025C0.057,-0.034 0.07,-0.05 0.081,-0.073L0.142,-0.073ZM0.357,-0.716L0.365,-0.629L0.115,-0.003L0.05,-0.003L0.307,-0.604C0.308,-0.605 0.31,-0.611 0.315,-0.62C0.319,-0.628 0.324,-0.639 0.329,-0.652C0.334,-0.665 0.338,-0.677 0.342,-0.689C0.346,-0.701 0.348,-0.71 0.348,-0.716L0.357,-0.716ZM0.486,-0.261L0.486,-0.227L0.18,-0.227L0.18,-0.261L0.486,-0.261ZM0.521,-0.073L0.634,-0.073C0.645,-0.05 0.658,-0.034 0.675,-0.025C0.691,-0.015 0.707,-0.01 0.722,-0.01L0.73,-0.01L0.73,-0L0.474,-0L0.474,-0.01L0.483,-0.01C0.496,-0.01 0.508,-0.016 0.518,-0.027C0.528,-0.038 0.529,-0.053 0.521,-0.073Z" style="fill-rule:nonzero;"/>
                </g>
                <g transform="matrix(96,0,0,96,279.258,373.273)">
                    <path d="M0.054,-0.694L0.163,-0.694L0.34,-0.145L0.309,0.014L0.054,-0.694ZM0.52,-0.716L0.531,-0.629L0.34,-0.097C0.34,-0.097 0.338,-0.091 0.335,-0.08C0.331,-0.068 0.327,-0.054 0.324,-0.037C0.321,-0.02 0.319,-0.003 0.318,0.014L0.309,0.014L0.287,-0.085L0.511,-0.716L0.52,-0.716ZM0.52,-0.715L0.733,-0.16L0.702,0.014L0.474,-0.576L0.52,-0.715ZM0.919,-0.694L0.732,-0.097C0.732,-0.097 0.73,-0.091 0.727,-0.079C0.724,-0.067 0.72,-0.053 0.717,-0.036C0.714,-0.019 0.712,-0.002 0.712,0.014L0.702,0.014L0.685,-0.085L0.859,-0.694L0.919,-0.694ZM0.84,-0.628C0.845,-0.648 0.844,-0.663 0.835,-0.674C0.826,-0.685 0.815,-0.69 0.802,-0.69L0.793,-0.69L0.793,-0.7L0.994,-0.7L0.994,-0.69L0.986,-0.69C0.971,-0.69 0.954,-0.685 0.936,-0.676C0.918,-0.666 0.905,-0.65 0.898,-0.628L0.84,-0.628ZM0.185,-0.628L0.078,-0.628C0.07,-0.65 0.057,-0.666 0.04,-0.676C0.022,-0.685 0.005,-0.69 -0.01,-0.69L-0.018,-0.69L-0.018,-0.7L0.232,-0.7L0.232,-0.69L0.223,-0.69C0.21,-0.69 0.199,-0.685 0.19,-0.674C0.18,-0.663 0.178,-0.648 0.185,-0.628Z" style="fill-rule:nonzero;"/>
                </g>
                <g transform="matrix(96,0,0,96,364.794,373.273)">
                    <path d="M0.357,-0.716L0.664,-0.006L0.547,-0.006L0.324,-0.588L0.357,-0.716ZM0.142,-0.073C0.137,-0.06 0.137,-0.048 0.14,-0.039C0.143,-0.03 0.149,-0.023 0.157,-0.018C0.164,-0.013 0.172,-0.01 0.18,-0.01L0.189,-0.01L0.189,-0L-0.016,-0L-0.016,-0.01L-0.007,-0.01C0.008,-0.01 0.024,-0.015 0.041,-0.025C0.057,-0.034 0.07,-0.05 0.081,-0.073L0.142,-0.073ZM0.357,-0.716L0.365,-0.629L0.115,-0.003L0.05,-0.003L0.307,-0.604C0.308,-0.605 0.31,-0.611 0.315,-0.62C0.319,-0.628 0.324,-0.639 0.329,-0.652C0.334,-0.665 0.338,-0.677 0.342,-0.689C0.346,-0.701 0.348,-0.71 0.348,-0.716L0.357,-0.716ZM0.486,-0.261L0.486,-0.227L0.18,-0.227L0.18,-0.261L0.486,-0.261ZM0.521,-0.073L0.634,-0.073C0.645,-0.05 0.658,-0.034 0.675,-0.025C0.691,-0.015 0.707,-0.01 0.722,-0.01L0.73,-0.01L0.73,-0L0.474,-0L0.474,-0.01L0.483,-0.01C0.496,-0.01 0.508,-0.016 0.518,-0.027C0.528,-0.038 0.529,-0.053 0.521,-0.073Z" style="fill-rule:nonzero;"/>
                </g>
                <g transform="matrix(96,0,0,96,433.338,373.273)">
                    <path d="M0.212,-0.7L0.349,-0.7C0.379,-0.7 0.407,-0.696 0.433,-0.688C0.459,-0.68 0.481,-0.668 0.5,-0.653C0.518,-0.637 0.532,-0.617 0.543,-0.594C0.554,-0.571 0.559,-0.543 0.559,-0.512C0.559,-0.481 0.552,-0.452 0.538,-0.423C0.524,-0.393 0.505,-0.37 0.48,-0.351C0.455,-0.332 0.425,-0.322 0.391,-0.321C0.406,-0.316 0.42,-0.305 0.435,-0.29C0.45,-0.275 0.462,-0.26 0.473,-0.245C0.473,-0.244 0.477,-0.238 0.486,-0.226C0.494,-0.214 0.504,-0.199 0.517,-0.182C0.53,-0.164 0.543,-0.146 0.556,-0.129C0.569,-0.112 0.58,-0.097 0.59,-0.086C0.603,-0.07 0.616,-0.056 0.63,-0.046C0.643,-0.035 0.657,-0.026 0.672,-0.02C0.687,-0.013 0.703,-0.01 0.722,-0.01L0.722,-0L0.652,-0C0.62,-0 0.592,-0.004 0.567,-0.013C0.542,-0.021 0.521,-0.032 0.503,-0.047C0.485,-0.061 0.47,-0.076 0.457,-0.093C0.454,-0.098 0.449,-0.106 0.441,-0.119C0.432,-0.132 0.423,-0.146 0.413,-0.163C0.402,-0.179 0.392,-0.195 0.382,-0.211C0.372,-0.227 0.363,-0.241 0.356,-0.253C0.349,-0.264 0.344,-0.272 0.342,-0.275C0.331,-0.293 0.318,-0.309 0.304,-0.322C0.29,-0.335 0.275,-0.341 0.258,-0.342L0.258,-0.352C0.259,-0.352 0.264,-0.352 0.273,-0.352C0.282,-0.351 0.292,-0.351 0.304,-0.352C0.321,-0.353 0.34,-0.356 0.36,-0.361C0.379,-0.366 0.397,-0.377 0.414,-0.392C0.43,-0.407 0.442,-0.43 0.45,-0.46C0.452,-0.467 0.454,-0.475 0.455,-0.485C0.456,-0.495 0.456,-0.505 0.455,-0.516C0.454,-0.562 0.443,-0.598 0.421,-0.624C0.398,-0.649 0.369,-0.663 0.333,-0.664C0.318,-0.665 0.302,-0.666 0.285,-0.666C0.268,-0.665 0.254,-0.665 0.242,-0.665L0.222,-0.665C0.222,-0.666 0.221,-0.669 0.22,-0.675L0.212,-0.7ZM0.225,-0.7L0.225,-0L0.132,-0L0.132,-0.7L0.225,-0.7ZM0.135,-0.073L0.135,-0L0.055,-0L0.055,-0.01L0.068,-0.01C0.085,-0.01 0.1,-0.016 0.113,-0.029C0.125,-0.041 0.131,-0.056 0.132,-0.073L0.135,-0.073ZM0.135,-0.627L0.132,-0.627C0.131,-0.644 0.125,-0.659 0.113,-0.672C0.1,-0.684 0.085,-0.69 0.068,-0.69L0.055,-0.69L0.055,-0.7L0.135,-0.7L0.135,-0.627ZM0.222,-0.073L0.225,-0.073C0.225,-0.056 0.231,-0.041 0.244,-0.029C0.257,-0.016 0.272,-0.01 0.289,-0.01L0.301,-0.01L0.301,-0L0.222,-0L0.222,-0.073Z" style="fill-rule:nonzero;"/>
                </g>
                <g transform="matrix(96,0,0,96,498.234,373.273)">
                    <path d="M0.401,-0.7C0.475,-0.7 0.539,-0.686 0.594,-0.657C0.649,-0.628 0.691,-0.588 0.722,-0.535C0.753,-0.482 0.768,-0.421 0.768,-0.35C0.768,-0.279 0.753,-0.218 0.722,-0.166C0.691,-0.113 0.649,-0.073 0.594,-0.044C0.539,-0.015 0.475,-0 0.401,-0L0.179,-0L0.178,-0.034L0.397,-0.034C0.451,-0.034 0.498,-0.047 0.538,-0.073C0.578,-0.099 0.609,-0.136 0.631,-0.183C0.653,-0.23 0.664,-0.286 0.664,-0.35C0.664,-0.414 0.653,-0.47 0.631,-0.517C0.609,-0.564 0.578,-0.601 0.538,-0.627C0.498,-0.653 0.451,-0.666 0.397,-0.666L0.168,-0.666L0.168,-0.7L0.401,-0.7ZM0.224,-0.7L0.224,-0L0.131,-0L0.131,-0.7L0.224,-0.7ZM0.134,-0.073L0.134,-0L0.054,-0L0.054,-0.01L0.067,-0.01C0.084,-0.01 0.099,-0.016 0.112,-0.029C0.124,-0.041 0.13,-0.056 0.131,-0.073L0.134,-0.073ZM0.134,-0.627L0.131,-0.627C0.131,-0.644 0.125,-0.659 0.112,-0.672C0.099,-0.684 0.084,-0.69 0.067,-0.69L0.055,-0.69L0.054,-0.7L0.134,-0.7L0.134,-0.627Z" style="fill-rule:nonzero;"/>
                </g>
                <g transform="matrix(96,0,0,96,576.378,373.273)">
                    <path d="M0.26,-0.714C0.271,-0.714 0.284,-0.713 0.299,-0.712C0.314,-0.711 0.329,-0.709 0.344,-0.707C0.359,-0.704 0.372,-0.702 0.384,-0.7C0.395,-0.697 0.404,-0.695 0.409,-0.692L0.405,-0.573L0.396,-0.573C0.396,-0.606 0.384,-0.632 0.361,-0.651C0.338,-0.67 0.308,-0.68 0.273,-0.68C0.236,-0.68 0.206,-0.669 0.183,-0.648C0.16,-0.626 0.148,-0.6 0.148,-0.571C0.147,-0.556 0.151,-0.541 0.16,-0.525C0.168,-0.508 0.181,-0.493 0.198,-0.479L0.393,-0.316C0.416,-0.298 0.433,-0.277 0.443,-0.254C0.452,-0.23 0.457,-0.205 0.456,-0.18C0.455,-0.121 0.435,-0.074 0.397,-0.039C0.359,-0.004 0.308,0.014 0.243,0.014C0.222,0.014 0.2,0.012 0.177,0.008C0.153,0.004 0.131,-0.002 0.11,-0.011C0.089,-0.019 0.073,-0.03 0.06,-0.043C0.057,-0.055 0.055,-0.07 0.056,-0.088C0.056,-0.105 0.058,-0.123 0.062,-0.142C0.065,-0.161 0.07,-0.177 0.076,-0.192L0.085,-0.192C0.082,-0.158 0.087,-0.128 0.1,-0.101C0.113,-0.074 0.132,-0.054 0.157,-0.04C0.182,-0.025 0.21,-0.019 0.243,-0.02C0.282,-0.021 0.315,-0.034 0.341,-0.057C0.366,-0.08 0.379,-0.11 0.379,-0.147C0.379,-0.166 0.375,-0.184 0.366,-0.2C0.357,-0.216 0.344,-0.23 0.326,-0.243L0.14,-0.401C0.115,-0.42 0.097,-0.442 0.086,-0.467C0.075,-0.492 0.071,-0.518 0.072,-0.543C0.073,-0.573 0.081,-0.601 0.096,-0.628C0.111,-0.654 0.132,-0.675 0.16,-0.691C0.187,-0.706 0.221,-0.714 0.26,-0.714ZM0.409,-0.704L0.409,-0.683L0.319,-0.683L0.319,-0.704L0.409,-0.704Z" style="fill-rule:nonzero;"/>
                </g>
                <g transform="matrix(96,0,0,96,649.242,373.273)">
                    <path d="M0.364,-0.697L0.364,-0L0.271,-0L0.271,-0.697L0.364,-0.697ZM0.617,-0.701L0.617,-0.667L0.018,-0.667L0.018,-0.701L0.617,-0.701ZM0.617,-0.67L0.617,-0.577L0.607,-0.578L0.607,-0.593C0.607,-0.614 0.6,-0.632 0.587,-0.646C0.573,-0.659 0.555,-0.666 0.534,-0.667L0.534,-0.67L0.617,-0.67ZM0.617,-0.719L0.617,-0.69L0.495,-0.701C0.51,-0.701 0.525,-0.702 0.542,-0.704C0.558,-0.706 0.573,-0.708 0.587,-0.711C0.601,-0.714 0.611,-0.716 0.617,-0.719ZM0.274,-0.073L0.274,-0L0.194,-0L0.194,-0.01L0.207,-0.01C0.224,-0.01 0.239,-0.016 0.252,-0.029C0.264,-0.041 0.27,-0.056 0.271,-0.073L0.274,-0.073ZM0.361,-0.073L0.364,-0.073C0.365,-0.056 0.371,-0.041 0.384,-0.029C0.396,-0.016 0.411,-0.01 0.428,-0.01L0.441,-0.01L0.441,-0L0.361,-0L0.361,-0.073ZM0.101,-0.67L0.101,-0.667C0.08,-0.666 0.062,-0.659 0.049,-0.646C0.035,-0.632 0.028,-0.614 0.028,-0.593L0.028,-0.578L0.018,-0.577L0.018,-0.67L0.101,-0.67ZM0.018,-0.719C0.025,-0.716 0.035,-0.714 0.049,-0.711C0.062,-0.708 0.077,-0.706 0.094,-0.704C0.111,-0.702 0.126,-0.701 0.14,-0.701L0.018,-0.69L0.018,-0.719Z" style="fill-rule:nonzero;"/>
                </g>
                <g transform="matrix(96,0,0,96,710.106,373.273)">
                    <path d="M0.212,-0.7L0.349,-0.7C0.379,-0.7 0.407,-0.696 0.433,-0.688C0.459,-0.68 0.481,-0.668 0.5,-0.653C0.518,-0.637 0.532,-0.617 0.543,-0.594C0.554,-0.571 0.559,-0.543 0.559,-0.512C0.559,-0.481 0.552,-0.452 0.538,-0.423C0.524,-0.393 0.505,-0.37 0.48,-0.351C0.455,-0.332 0.425,-0.322 0.391,-0.321C0.406,-0.316 0.42,-0.305 0.435,-0.29C0.45,-0.275 0.462,-0.26 0.473,-0.245C0.473,-0.244 0.477,-0.238 0.486,-0.226C0.494,-0.214 0.504,-0.199 0.517,-0.182C0.53,-0.164 0.543,-0.146 0.556,-0.129C0.569,-0.112 0.58,-0.097 0.59,-0.086C0.603,-0.07 0.616,-0.056 0.63,-0.046C0.643,-0.035 0.657,-0.026 0.672,-0.02C0.687,-0.013 0.703,-0.01 0.722,-0.01L0.722,-0L0.652,-0C0.62,-0 0.592,-0.004 0.567,-0.013C0.542,-0.021 0.521,-0.032 0.503,-0.047C0.485,-0.061 0.47,-0.076 0.457,-0.093C0.454,-0.098 0.449,-0.106 0.441,-0.119C0.432,-0.132 0.423,-0.146 0.413,-0.163C0.402,-0.179 0.392,-0.195 0.382,-0.211C0.372,-0.227 0.363,-0.241 0.356,-0.253C0.349,-0.264 0.344,-0.272 0.342,-0.275C0.331,-0.293 0.318,-0.309 0.304,-0.322C0.29,-0.335 0.275,-0.341 0.258,-0.342L0.258,-0.352C0.259,-0.352 0.264,-0.352 0.273,-0.352C0.282,-0.351 0.292,-0.351 0.304,-0.352C0.321,-0.353 0.34,-0.356 0.36,-0.361C0.379,-0.366 0.397,-0.377 0.414,-0.392C0.43,-0.407 0.442,-0.43 0.45,-0.46C0.452,-0.467 0.454,-0.475 0.455,-0.485C0.456,-0.495 0.456,-0.505 0.455,-0.516C0.454,-0.562 0.443,-0.598 0.421,-0.624C0.398,-0.649 0.369,-0.663 0.333,-0.664C0.318,-0.665 0.302,-0.666 0.285,-0.666C0.268,-0.665 0.254,-0.665 0.242,-0.665L0.222,-0.665C0.222,-0.666 0.221,-0.669 0.22,-0.675L0.212,-0.7ZM0.225,-0.7L0.225,-0L0.132,-0L0.132,-0.7L0.225,-0.7ZM0.135,-0.073L0.135,-0L0.055,-0L0.055,-0.01L0.068,-0.01C0.085,-0.01 0.1,-0.016 0.113,-0.029C0.125,-0.041 0.131,-0.056 0.132,-0.073L0.135,-0.073ZM0.135,-0.627L0.132,-0.627C0.131,-0.644 0.125,-0.659 0.113,-0.672C0.1,-0.684 0.085,-0.69 0.068,-0.69L0.055,-0.69L0.055,-0.7L0.135,-0.7L0.135,-0.627ZM0.222,-0.073L0.225,-0.073C0.225,-0.056 0.231,-0.041 0.244,-0.029C0.257,-0.016 0.272,-0.01 0.289,-0.01L0.301,-0.01L0.301,-0L0.222,-0L0.222,-0.073Z" style="fill-rule:nonzero;"/>
                </g>
                <g transform="matrix(96,0,0,96,772.794,373.273)">
                    <path d="M0.208,-0.7L0.208,-0.26C0.208,-0.212 0.217,-0.17 0.234,-0.134C0.251,-0.098 0.275,-0.07 0.306,-0.051C0.337,-0.031 0.373,-0.021 0.414,-0.021C0.457,-0.021 0.495,-0.03 0.528,-0.049C0.56,-0.068 0.585,-0.094 0.603,-0.128C0.62,-0.162 0.629,-0.202 0.629,-0.247L0.629,-0.7L0.684,-0.7L0.684,-0.249C0.684,-0.196 0.673,-0.15 0.651,-0.111C0.628,-0.072 0.596,-0.041 0.555,-0.019C0.513,0.003 0.464,0.014 0.408,0.014C0.347,0.014 0.295,0.003 0.251,-0.019C0.207,-0.04 0.173,-0.071 0.15,-0.11C0.127,-0.149 0.115,-0.195 0.115,-0.248L0.115,-0.7L0.208,-0.7ZM0.118,-0.7L0.118,-0.64L0.115,-0.64C0.115,-0.655 0.11,-0.667 0.1,-0.676C0.089,-0.685 0.077,-0.69 0.062,-0.69L0.046,-0.69L0.046,-0.7L0.118,-0.7ZM0.277,-0.7L0.277,-0.69L0.261,-0.69C0.246,-0.69 0.234,-0.685 0.224,-0.676C0.213,-0.667 0.208,-0.655 0.208,-0.64L0.206,-0.64L0.206,-0.7L0.277,-0.7ZM0.632,-0.7L0.632,-0.64L0.629,-0.64C0.629,-0.655 0.624,-0.667 0.614,-0.676C0.603,-0.685 0.591,-0.69 0.576,-0.69L0.56,-0.69L0.56,-0.7L0.632,-0.7ZM0.753,-0.7L0.753,-0.69L0.737,-0.69C0.722,-0.69 0.71,-0.685 0.7,-0.676C0.689,-0.667 0.684,-0.655 0.684,-0.64L0.682,-0.64L0.682,-0.7L0.753,-0.7Z" style="fill-rule:nonzero;"/>
                </g>
                <g transform="matrix(96,0,0,96,849.306,373.273)">
                    <path d="M0.26,-0.714C0.271,-0.714 0.284,-0.713 0.299,-0.712C0.314,-0.711 0.329,-0.709 0.344,-0.707C0.359,-0.704 0.372,-0.702 0.384,-0.7C0.395,-0.697 0.404,-0.695 0.409,-0.692L0.405,-0.573L0.396,-0.573C0.396,-0.606 0.384,-0.632 0.361,-0.651C0.338,-0.67 0.308,-0.68 0.273,-0.68C0.236,-0.68 0.206,-0.669 0.183,-0.648C0.16,-0.626 0.148,-0.6 0.148,-0.571C0.147,-0.556 0.151,-0.541 0.16,-0.525C0.168,-0.508 0.181,-0.493 0.198,-0.479L0.393,-0.316C0.416,-0.298 0.433,-0.277 0.443,-0.254C0.452,-0.23 0.457,-0.205 0.456,-0.18C0.455,-0.121 0.435,-0.074 0.397,-0.039C0.359,-0.004 0.308,0.014 0.243,0.014C0.222,0.014 0.2,0.012 0.177,0.008C0.153,0.004 0.131,-0.002 0.11,-0.011C0.089,-0.019 0.073,-0.03 0.06,-0.043C0.057,-0.055 0.055,-0.07 0.056,-0.088C0.056,-0.105 0.058,-0.123 0.062,-0.142C0.065,-0.161 0.07,-0.177 0.076,-0.192L0.085,-0.192C0.082,-0.158 0.087,-0.128 0.1,-0.101C0.113,-0.074 0.132,-0.054 0.157,-0.04C0.182,-0.025 0.21,-0.019 0.243,-0.02C0.282,-0.021 0.315,-0.034 0.341,-0.057C0.366,-0.08 0.379,-0.11 0.379,-0.147C0.379,-0.166 0.375,-0.184 0.366,-0.2C0.357,-0.216 0.344,-0.23 0.326,-0.243L0.14,-0.401C0.115,-0.42 0.097,-0.442 0.086,-0.467C0.075,-0.492 0.071,-0.518 0.072,-0.543C0.073,-0.573 0.081,-0.601 0.096,-0.628C0.111,-0.654 0.132,-0.675 0.16,-0.691C0.187,-0.706 0.221,-0.714 0.26,-0.714ZM0.409,-0.704L0.409,-0.683L0.319,-0.683L0.319,-0.704L0.409,-0.704Z" style="fill-rule:nonzero;"/>
                </g>
                <g transform="matrix(96,0,0,96,898.17,373.273)">
                    <path d="M0.364,-0.697L0.364,-0L0.271,-0L0.271,-0.697L0.364,-0.697ZM0.617,-0.701L0.617,-0.667L0.018,-0.667L0.018,-0.701L0.617,-0.701ZM0.617,-0.67L0.617,-0.577L0.607,-0.578L0.607,-0.593C0.607,-0.614 0.6,-0.632 0.587,-0.646C0.573,-0.659 0.555,-0.666 0.534,-0.667L0.534,-0.67L0.617,-0.67ZM0.617,-0.719L0.617,-0.69L0.495,-0.701C0.51,-0.701 0.525,-0.702 0.542,-0.704C0.558,-0.706 0.573,-0.708 0.587,-0.711C0.601,-0.714 0.611,-0.716 0.617,-0.719ZM0.274,-0.073L0.274,-0L0.194,-0L0.194,-0.01L0.207,-0.01C0.224,-0.01 0.239,-0.016 0.252,-0.029C0.264,-0.041 0.27,-0.056 0.271,-0.073L0.274,-0.073ZM0.361,-0.073L0.364,-0.073C0.365,-0.056 0.371,-0.041 0.384,-0.029C0.396,-0.016 0.411,-0.01 0.428,-0.01L0.441,-0.01L0.441,-0L0.361,-0L0.361,-0.073ZM0.101,-0.67L0.101,-0.667C0.08,-0.666 0.062,-0.659 0.049,-0.646C0.035,-0.632 0.028,-0.614 0.028,-0.593L0.028,-0.578L0.018,-0.577L0.018,-0.67L0.101,-0.67ZM0.018,-0.719C0.025,-0.716 0.035,-0.714 0.049,-0.711C0.062,-0.708 0.077,-0.706 0.094,-0.704C0.111,-0.702 0.126,-0.701 0.14,-0.701L0.018,-0.69L0.018,-0.719Z" style="fill-rule:nonzero;"/>
                </g>
            </g>
        </g>
    </g>
</svg>
