<svg viewBox="0 0 1920 600" xmlns="http://www.w3.org/2000/svg" xml:space="preserve" style="fill-rule:evenodd;clip-rule:evenodd;stroke-linejoin:round;stroke-miterlimit:2"><path d="m.754-.714.008.081-.266.544a.566.566 0 0 0-.025.059.162.162 0 0 0-.011.046H.45L.428-.055l.326-.659Zm-.636.641V0H.007v-.01h.016a.076.076 0 0 0 .048-.017.068.068 0 0 0 .025-.046h.022Zm.034.016v.005c0 .011.004.02.012.029a.033.033 0 0 0 .027.014h.015V0H.145v-.057h.007Zm.022-.657h.009l.025.073L.147 0h-.06l.087-.714Zm.009 0 .301.594L.45.016.162-.56l.021-.154Zm.58 0L.852 0H.746L.693-.557l.061-.157h.009Zm.059.641h.021c.003.02.012.035.026.046.014.011.03.017.047.017h.016V0h-.11v-.073Zm-.081.016h.007V0H.687v-.009h.015A.035.035 0 0 0 .73-.023a.046.046 0 0 0 .011-.029v-.005Z" style="fill-rule:nonzero" transform="translate(58.13 295.43) scale(266.82432)"/><path d="M.224-.7V0H.131v-.7h.093Zm-.09.627V0h-.08v-.01h.013a.061.061 0 0 0 .045-.019.066.066 0 0 0 .019-.044h.003Zm0-.554H.131a.07.07 0 0 0-.019-.045.064.064 0 0 0-.045-.018H.054V-.7h.08v.073Zm.087.554h.003a.062.062 0 0 0 .02.044.058.058 0 0 0 .044.019h.013V0h-.08v-.073Zm0-.554V-.7h.08v.01H.288a.06.06 0 0 0-.044.018.067.067 0 0 0-.02.045H.221Z" style="fill-rule:nonzero" transform="translate(308.411 295.43) scale(266.82432)"/><path d="M.224-.7V0H.131v-.7h.093Zm.268.665L.5 0H.221v-.035h.271Zm.065-.141L.503 0H.327l.036-.035A.187.187 0 0 0 .45-.053a.153.153 0 0 0 .058-.049.344.344 0 0 0 .039-.074h.01Zm-.423.103V0h-.08v-.01h.013a.061.061 0 0 0 .045-.019.066.066 0 0 0 .019-.044h.003Zm0-.554H.131a.07.07 0 0 0-.019-.045.064.064 0 0 0-.045-.018H.054V-.7h.08v.073Zm.087 0V-.7h.08v.01H.288a.06.06 0 0 0-.044.018.067.067 0 0 0-.02.045H.221Z" style="fill-rule:nonzero" transform="translate(402.867 295.43) scale(266.82432)"/><path d="M.224-.7V0H.131v-.7h.093Zm.268.665L.5 0H.221v-.035h.271Zm.065-.141L.503 0H.327l.036-.035A.187.187 0 0 0 .45-.053a.153.153 0 0 0 .058-.049.344.344 0 0 0 .039-.074h.01Zm-.423.103V0h-.08v-.01h.013a.061.061 0 0 0 .045-.019.066.066 0 0 0 .019-.044h.003Zm0-.554H.131a.07.07 0 0 0-.019-.045.064.064 0 0 0-.045-.018H.054V-.7h.08v.073Zm.087 0V-.7h.08v.01H.288a.06.06 0 0 0-.044.018.067.067 0 0 0-.02.045H.221Z" style="fill-rule:nonzero" transform="translate(554.423 295.43) scale(266.82432)"/><path d="M.224-.7V0H.131v-.7h.093Zm.268.665L.5 0H.221v-.035h.271ZM.451-.362v.034h-.23v-.034h.23ZM.496-.7v.035H.221V-.7h.275Zm.061.524L.503 0H.327l.036-.035A.187.187 0 0 0 .45-.053a.153.153 0 0 0 .058-.049.344.344 0 0 0 .039-.074h.01ZM.451-.33v.076h-.01v-.013A.061.061 0 0 0 .424-.31a.057.057 0 0 0-.043-.018V-.33h.07Zm0-.106v.076h-.07v-.002a.061.061 0 0 0 .06-.062v-.012h.01Zm.045-.232v.092h-.01v-.016a.073.073 0 0 0-.02-.052.077.077 0 0 0-.053-.022v-.002h.083Zm0-.05v.029L.374-.7a.396.396 0 0 0 .092-.01C.48-.713.49-.715.496-.718Zm-.362.645V0h-.08v-.01h.013a.061.061 0 0 0 .045-.019.066.066 0 0 0 .019-.044h.003Zm0-.554H.131a.061.061 0 0 0-.019-.045.064.064 0 0 0-.045-.018H.055L.054-.7h.08v.073Z" style="fill-rule:nonzero" transform="translate(705.98 295.43) scale(266.82432)"/><path d="m.12-.715.6.616.01.113-.6-.615-.01-.114Zm.003.644V0H.04v-.01h.019a.058.058 0 0 0 .043-.018.058.058 0 0 0 .018-.043h.003Zm.075 0c0 .017.006.031.018.043a.058.058 0 0 0 .043.018h.019V0H.195v-.071h.003ZM.12-.715l.077.088L.198 0H.12v-.59a.728.728 0 0 0-.005-.089L.11-.715h.01ZM.729-.7v.586a.605.605 0 0 0 .008.11.248.248 0 0 0 .002.018H.73L.652-.075V-.7h.077Zm.08 0v.01H.791a.061.061 0 0 0-.043.017.066.066 0 0 0-.019.044H.726V-.7h.083Zm-.238 0h.083v.071H.652a.07.07 0 0 0-.018-.044A.064.064 0 0 0 .59-.69H.571V-.7Z" style="fill-rule:nonzero" transform="translate(862.605 295.43) scale(266.82432)"/><path d="m.12-.715.6.616.01.113-.6-.615-.01-.114Zm.003.644V0H.04v-.01h.019a.058.058 0 0 0 .043-.018.058.058 0 0 0 .018-.043h.003Zm.075 0c0 .017.006.031.018.043a.058.058 0 0 0 .043.018h.019V0H.195v-.071h.003ZM.12-.715l.077.088L.198 0H.12v-.59a.728.728 0 0 0-.005-.089L.11-.715h.01ZM.729-.7v.586a.605.605 0 0 0 .008.11.248.248 0 0 0 .002.018H.73L.652-.075V-.7h.077Zm.08 0v.01H.791a.061.061 0 0 0-.043.017.066.066 0 0 0-.019.044H.726V-.7h.083Zm-.238 0h.083v.071H.652a.07.07 0 0 0-.018-.044A.064.064 0 0 0 .59-.69H.571V-.7Z" style="fill-rule:nonzero" transform="translate(1085.937 295.43) scale(266.82432)"/><path d="M.224-.7V0H.131v-.7h.093Zm-.09.627V0h-.08v-.01h.013a.061.061 0 0 0 .045-.019.066.066 0 0 0 .019-.044h.003Zm0-.554H.131a.07.07 0 0 0-.019-.045.064.064 0 0 0-.045-.018H.054V-.7h.08v.073Zm.087.554h.003a.062.062 0 0 0 .02.044.058.058 0 0 0 .044.019h.013V0h-.08v-.073Zm0-.554V-.7h.08v.01H.288a.06.06 0 0 0-.044.018.067.067 0 0 0-.02.045H.221Z" style="fill-rule:nonzero" transform="translate(1309.27 295.43) scale(266.82432)"/><path d="M.208-.7v.44c0 .048.009.09.026.126a.195.195 0 0 0 .18.113.224.224 0 0 0 .114-.028.197.197 0 0 0 .075-.079.264.264 0 0 0 .026-.119V-.7h.055v.451a.276.276 0 0 1-.033.138.243.243 0 0 1-.096.092.312.312 0 0 1-.147.033.346.346 0 0 1-.157-.033A.23.23 0 0 1 .15-.11a.267.267 0 0 1-.035-.138V-.7h.093Zm-.09 0v.06H.115A.046.046 0 0 0 .1-.676.057.057 0 0 0 .062-.69H.046V-.7h.072Zm.159 0v.01H.261a.053.053 0 0 0-.037.014.044.044 0 0 0-.016.036H.206V-.7h.071Zm.355 0v.06H.629a.046.046 0 0 0-.015-.036.057.057 0 0 0-.038-.014H.56V-.7h.072Zm.121 0v.01H.737A.053.053 0 0 0 .7-.676a.044.044 0 0 0-.016.036H.682V-.7h.071Z" style="fill-rule:nonzero" transform="translate(1403.725 295.43) scale(266.82432)"/><path d="m.754-.714.008.081-.266.544a.566.566 0 0 0-.025.059.162.162 0 0 0-.011.046H.45L.428-.055l.326-.659Zm-.636.641V0H.007v-.01h.016a.076.076 0 0 0 .048-.017.068.068 0 0 0 .025-.046h.022Zm.034.016v.005c0 .011.004.02.012.029a.033.033 0 0 0 .027.014h.015V0H.145v-.057h.007Zm.022-.657h.009l.025.073L.147 0h-.06l.087-.714Zm.009 0 .301.594L.45.016.162-.56l.021-.154Zm.58 0L.852 0H.746L.693-.557l.061-.157h.009Zm.059.641h.021c.003.02.012.035.026.046.014.011.03.017.047.017h.016V0h-.11v-.073Zm-.081.016h.007V0H.687v-.009h.015A.035.035 0 0 0 .73-.023a.046.046 0 0 0 .011-.029v-.005Z" style="fill-rule:nonzero" transform="translate(1611.314 295.43) scale(266.82432)"/><path d="m.357-.716.307.71H.547L.324-.588l.033-.128Zm-.215.643a.05.05 0 0 0-.002.034.04.04 0 0 0 .017.021.04.04 0 0 0 .023.008h.009V0h-.205v-.01h.009a.095.095 0 0 0 .048-.015.103.103 0 0 0 .04-.048h.061Zm.215-.643.008.087-.25.626H.05l.257-.601.008-.016a.37.37 0 0 0 .014-.032l.013-.037a.095.095 0 0 0 .006-.027h.009Zm.129.455v.034H.18v-.034h.306Zm.035.188h.113a.1.1 0 0 0 .041.048.09.09 0 0 0 .047.015H.73V0H.474v-.01h.009a.047.047 0 0 0 .035-.017c.01-.011.011-.026.003-.046Z" style="fill-rule:nonzero" transform="translate(63.736 492.878) scale(233.58432)"/><path d="M.054-.694h.109l.177.549-.031.159-.255-.708ZM.52-.716l.011.087-.191.532-.005.017a.296.296 0 0 0-.017.094H.309L.287-.085l.224-.631H.52Zm0 .001.213.555-.031.174-.228-.59.046-.139Zm.399.021-.187.597-.005.018-.01.043a.292.292 0 0 0-.005.05h-.01L.685-.085l.174-.609h.06ZM.84-.628c.005-.02.004-.035-.005-.046A.04.04 0 0 0 .802-.69H.793V-.7h.201v.01H.986a.115.115 0 0 0-.05.014.08.08 0 0 0-.038.048H.84Zm-.655 0H.078A.089.089 0 0 0 .04-.676.115.115 0 0 0-.01-.69h-.008V-.7h.25v.01H.223a.04.04 0 0 0-.033.016c-.01.011-.012.026-.005.046Z" style="fill-rule:nonzero" transform="translate(209.96 492.878) scale(233.58432)"/><path d="m.357-.716.307.71H.547L.324-.588l.033-.128Zm-.215.643a.05.05 0 0 0-.002.034.04.04 0 0 0 .017.021.04.04 0 0 0 .023.008h.009V0h-.205v-.01h.009a.095.095 0 0 0 .048-.015.103.103 0 0 0 .04-.048h.061Zm.215-.643.008.087-.25.626H.05l.257-.601.008-.016a.37.37 0 0 0 .014-.032l.013-.037a.095.095 0 0 0 .006-.027h.009Zm.129.455v.034H.18v-.034h.306Zm.035.188h.113a.1.1 0 0 0 .041.048.09.09 0 0 0 .047.015H.73V0H.474v-.01h.009a.047.047 0 0 0 .035-.017c.01-.011.011-.026.003-.046Z" style="fill-rule:nonzero" transform="translate(418.083 492.878) scale(233.58432)"/><path d="M.212-.7h.137c.03 0 .058.004.084.012.026.008.048.02.067.035a.183.183 0 0 1 .059.141.2.2 0 0 1-.021.089.187.187 0 0 1-.058.072.151.151 0 0 1-.089.03.119.119 0 0 1 .044.031.379.379 0 0 1 .051.064.792.792 0 0 0 .031.044l.039.053c.013.017.024.032.034.043a.216.216 0 0 0 .082.066c.015.007.031.01.05.01V0h-.07a.249.249 0 0 1-.149-.047.25.25 0 0 1-.046-.046L.441-.119a.693.693 0 0 1-.028-.044L.382-.211.356-.253.342-.275a.223.223 0 0 0-.038-.047.071.071 0 0 0-.046-.02v-.01h.015A.309.309 0 0 0 .36-.361a.135.135 0 0 0 .054-.031A.142.142 0 0 0 .45-.46a.137.137 0 0 0 .005-.056.168.168 0 0 0-.034-.108.12.12 0 0 0-.088-.04.71.71 0 0 0-.048-.002l-.043.001h-.02L.22-.675.212-.7Zm.013 0V0H.132v-.7h.093Zm-.09.627V0h-.08v-.01h.013a.061.061 0 0 0 .045-.019.066.066 0 0 0 .019-.044h.003Zm0-.554H.132a.07.07 0 0 0-.019-.045.064.064 0 0 0-.045-.018H.055V-.7h.08v.073Zm.087.554h.003c0 .017.006.032.019.044a.061.061 0 0 0 .045.019h.012V0H.222v-.073Z" style="fill-rule:nonzero" transform="translate(584.863 492.878) scale(233.58432)"/><path d="M.401-.7c.074 0 .138.014.193.043a.314.314 0 0 1 .128.122.358.358 0 0 1 .046.185.352.352 0 0 1-.046.184.314.314 0 0 1-.128.122A.407.407 0 0 1 .401 0H.179L.178-.034h.219a.253.253 0 0 0 .141-.039.258.258 0 0 0 .093-.11.392.392 0 0 0 .033-.167.392.392 0 0 0-.033-.167.258.258 0 0 0-.093-.11.253.253 0 0 0-.141-.039H.168V-.7h.233Zm-.177 0V0H.131v-.7h.093Zm-.09.627V0h-.08v-.01h.013a.061.061 0 0 0 .045-.019.066.066 0 0 0 .019-.044h.003Zm0-.554H.131a.061.061 0 0 0-.019-.045.064.064 0 0 0-.045-.018H.055L.054-.7h.08v.073Z" style="fill-rule:nonzero" transform="translate(742.766 492.878) scale(233.58432)"/><path d="m.26-.714.039.002.045.005.04.007c.011.003.02.005.025.008l-.004.119H.396a.096.096 0 0 0-.035-.078.135.135 0 0 0-.088-.029.129.129 0 0 0-.09.032.104.104 0 0 0-.035.077.081.081 0 0 0 .012.046.136.136 0 0 0 .038.046l.195.163c.023.018.04.039.05.062a.19.19 0 0 1 .013.074.187.187 0 0 1-.059.141.218.218 0 0 1-.154.053.385.385 0 0 1-.133-.025.14.14 0 0 1-.05-.032.262.262 0 0 1 .002-.099.227.227 0 0 1 .014-.05h.009A.17.17 0 0 0 .1-.101a.135.135 0 0 0 .057.061.152.152 0 0 0 .086.02.15.15 0 0 0 .098-.037.117.117 0 0 0 .038-.09A.107.107 0 0 0 .366-.2a.134.134 0 0 0-.04-.043L.14-.401a.168.168 0 0 1-.054-.066.185.185 0 0 1 .01-.161.168.168 0 0 1 .064-.063.205.205 0 0 1 .1-.023Zm.149.01v.021h-.09v-.021h.09Z" style="fill-rule:nonzero" transform="translate(932.903 492.878) scale(233.58432)"/><path d="M.364-.697V0H.271v-.697h.093Zm.253-.004v.034H.018v-.034h.599Zm0 .031v.093l-.01-.001v-.015a.076.076 0 0 0-.02-.053.081.081 0 0 0-.053-.021V-.67h.083Zm0-.049v.029L.495-.701a.396.396 0 0 0 .092-.01c.014-.003.024-.005.03-.008Zm-.343.646V0h-.08v-.01h.013a.061.061 0 0 0 .045-.019.066.066 0 0 0 .019-.044h.003Zm.087 0h.003a.062.062 0 0 0 .02.044.058.058 0 0 0 .044.019h.013V0h-.08v-.073ZM.101-.67v.003a.077.077 0 0 0-.052.021.072.072 0 0 0-.021.053v.015l-.01.001V-.67h.083ZM.018-.719c.007.003.017.005.031.008a.43.43 0 0 0 .091.01L.018-.69v-.029Z" style="fill-rule:nonzero" transform="translate(1110.194 492.878) scale(233.58432)"/><path d="M.212-.7h.137c.03 0 .058.004.084.012.026.008.048.02.067.035a.183.183 0 0 1 .059.141.2.2 0 0 1-.021.089.187.187 0 0 1-.058.072.151.151 0 0 1-.089.03.119.119 0 0 1 .044.031.379.379 0 0 1 .051.064.792.792 0 0 0 .031.044l.039.053c.013.017.024.032.034.043a.216.216 0 0 0 .082.066c.015.007.031.01.05.01V0h-.07a.249.249 0 0 1-.149-.047.25.25 0 0 1-.046-.046L.441-.119a.693.693 0 0 1-.028-.044L.382-.211.356-.253.342-.275a.223.223 0 0 0-.038-.047.071.071 0 0 0-.046-.02v-.01h.015A.309.309 0 0 0 .36-.361a.135.135 0 0 0 .054-.031A.142.142 0 0 0 .45-.46a.137.137 0 0 0 .005-.056.168.168 0 0 0-.034-.108.12.12 0 0 0-.088-.04.71.71 0 0 0-.048-.002l-.043.001h-.02L.22-.675.212-.7Zm.013 0V0H.132v-.7h.093Zm-.09.627V0h-.08v-.01h.013a.061.061 0 0 0 .045-.019.066.066 0 0 0 .019-.044h.003Zm0-.554H.132a.07.07 0 0 0-.019-.045.064.064 0 0 0-.045-.018H.055V-.7h.08v.073Zm.087.554h.003c0 .017.006.032.019.044a.061.061 0 0 0 .045.019h.012V0H.222v-.073Z" style="fill-rule:nonzero" transform="translate(1258.286 492.878) scale(233.58432)"/><path d="M.208-.7v.44c0 .048.009.09.026.126a.195.195 0 0 0 .18.113.224.224 0 0 0 .114-.028.197.197 0 0 0 .075-.079.264.264 0 0 0 .026-.119V-.7h.055v.451a.276.276 0 0 1-.033.138.243.243 0 0 1-.096.092.312.312 0 0 1-.147.033.346.346 0 0 1-.157-.033A.23.23 0 0 1 .15-.11a.267.267 0 0 1-.035-.138V-.7h.093Zm-.09 0v.06H.115A.046.046 0 0 0 .1-.676.057.057 0 0 0 .062-.69H.046V-.7h.072Zm.159 0v.01H.261a.053.053 0 0 0-.037.014.044.044 0 0 0-.016.036H.206V-.7h.071Zm.355 0v.06H.629a.046.046 0 0 0-.015-.036.057.057 0 0 0-.038-.014H.56V-.7h.072Zm.121 0v.01H.737A.053.053 0 0 0 .7-.676a.044.044 0 0 0-.016.036H.682V-.7h.071Z" style="fill-rule:nonzero" transform="translate(1410.817 492.878) scale(233.58432)"/><path d="m.26-.714.039.002.045.005.04.007c.011.003.02.005.025.008l-.004.119H.396a.096.096 0 0 0-.035-.078.135.135 0 0 0-.088-.029.129.129 0 0 0-.09.032.104.104 0 0 0-.035.077.081.081 0 0 0 .012.046.136.136 0 0 0 .038.046l.195.163c.023.018.04.039.05.062a.19.19 0 0 1 .013.074.187.187 0 0 1-.059.141.218.218 0 0 1-.154.053.385.385 0 0 1-.133-.025.14.14 0 0 1-.05-.032.262.262 0 0 1 .002-.099.227.227 0 0 1 .014-.05h.009A.17.17 0 0 0 .1-.101a.135.135 0 0 0 .057.061.152.152 0 0 0 .086.02.15.15 0 0 0 .098-.037.117.117 0 0 0 .038-.09A.107.107 0 0 0 .366-.2a.134.134 0 0 0-.04-.043L.14-.401a.168.168 0 0 1-.054-.066.185.185 0 0 1 .01-.161.168.168 0 0 1 .064-.063.205.205 0 0 1 .1-.023Zm.149.01v.021h-.09v-.021h.09Z" style="fill-rule:nonzero" transform="translate(1596.984 492.878) scale(233.58432)"/><path d="M.364-.697V0H.271v-.697h.093Zm.253-.004v.034H.018v-.034h.599Zm0 .031v.093l-.01-.001v-.015a.076.076 0 0 0-.02-.053.081.081 0 0 0-.053-.021V-.67h.083Zm0-.049v.029L.495-.701a.396.396 0 0 0 .092-.01c.014-.003.024-.005.03-.008Zm-.343.646V0h-.08v-.01h.013a.061.061 0 0 0 .045-.019.066.066 0 0 0 .019-.044h.003Zm.087 0h.003a.062.062 0 0 0 .02.044.058.058 0 0 0 .044.019h.013V0h-.08v-.073ZM.101-.67v.003a.077.077 0 0 0-.052.021.072.072 0 0 0-.021.053v.015l-.01.001V-.67h.083ZM.018-.719c.007.003.017.005.031.008a.43.43 0 0 0 .091.01L.018-.69v-.029Z" style="fill-rule:nonzero" transform="translate(1715.878 492.878) scale(233.58432)"/></svg>